<?xml version="1.0" encoding="UTF-8"?><svg xmlns="http://www.w3.org/2000/svg" xmlns:xlink="http://www.w3.org/1999/xlink" contentScriptType="text/ecmascript" width="750" zoomAndPan="magnify" contentStyleType="text/css" viewBox="0 0 750 749.999995" height="749.999995" preserveAspectRatio="xMidYMid meet" version="1.0"><defs><clipPath id="clip-0"><path d="M 309 24 L 561 24 L 561 144 L 309 144 Z M 309 24 " clip-rule="nonzero"/></clipPath><clipPath id="clip-1"><path d="M 228.773438 0 L 685.210938 96.371094 L 538.171875 792.769531 L 81.738281 696.398438 Z M 228.773438 0 " clip-rule="nonzero"/></clipPath><clipPath id="clip-2"><path d="M 228.773438 0 L 685.210938 96.371094 L 538.171875 792.769531 L 81.738281 696.398438 Z M 228.773438 0 " clip-rule="nonzero"/></clipPath><clipPath id="clip-3"><path d="M 228.773438 0 L 685.210938 96.371094 L 538.171875 792.769531 L 81.738281 696.398438 Z M 228.773438 0 " clip-rule="nonzero"/></clipPath><clipPath id="clip-4"><path d="M 253 89 L 592 89 L 592 219 L 253 219 Z M 253 89 " clip-rule="nonzero"/></clipPath><clipPath id="clip-5"><path d="M 228.773438 0 L 685.210938 96.371094 L 538.171875 792.769531 L 81.738281 696.398438 Z M 228.773438 0 " clip-rule="nonzero"/></clipPath><clipPath id="clip-6"><path d="M 228.773438 0 L 685.210938 96.371094 L 538.171875 792.769531 L 81.738281 696.398438 Z M 228.773438 0 " clip-rule="nonzero"/></clipPath><clipPath id="clip-7"><path d="M 228.773438 0 L 685.210938 96.371094 L 538.171875 792.769531 L 81.738281 696.398438 Z M 228.773438 0 " clip-rule="nonzero"/></clipPath><clipPath id="clip-8"><path d="M 200 164 L 535 164 L 535 745 L 200 745 Z M 200 164 " clip-rule="nonzero"/></clipPath><clipPath id="clip-9"><path d="M 228.773438 0 L 685.210938 96.371094 L 538.171875 792.769531 L 81.738281 696.398438 Z M 228.773438 0 " clip-rule="nonzero"/></clipPath><clipPath id="clip-10"><path d="M 228.773438 0 L 685.210938 96.371094 L 538.171875 792.769531 L 81.738281 696.398438 Z M 228.773438 0 " clip-rule="nonzero"/></clipPath><clipPath id="clip-11"><path d="M 228.773438 0 L 685.210938 96.371094 L 538.171875 792.769531 L 81.738281 696.398438 Z M 228.773438 0 " clip-rule="nonzero"/></clipPath><clipPath id="clip-12"><path d="M 284 426 L 434 426 L 434 482 L 284 482 Z M 284 426 " clip-rule="nonzero"/></clipPath><clipPath id="clip-13"><path d="M 228.773438 0 L 685.210938 96.371094 L 538.171875 792.769531 L 81.738281 696.398438 Z M 228.773438 0 " clip-rule="nonzero"/></clipPath><clipPath id="clip-14"><path d="M 228.773438 0 L 685.210938 96.371094 L 538.171875 792.769531 L 81.738281 696.398438 Z M 228.773438 0 " clip-rule="nonzero"/></clipPath><clipPath id="clip-15"><path d="M 228.773438 0 L 685.210938 96.371094 L 538.171875 792.769531 L 81.738281 696.398438 Z M 228.773438 0 " clip-rule="nonzero"/></clipPath><clipPath id="clip-16"><path d="M 306 381 L 432 381 L 432 431 L 306 431 Z M 306 381 " clip-rule="nonzero"/></clipPath><clipPath id="clip-17"><path d="M 228.773438 0 L 685.210938 96.371094 L 538.171875 792.769531 L 81.738281 696.398438 Z M 228.773438 0 " clip-rule="nonzero"/></clipPath><clipPath id="clip-18"><path d="M 228.773438 0 L 685.210938 96.371094 L 538.171875 792.769531 L 81.738281 696.398438 Z M 228.773438 0 " clip-rule="nonzero"/></clipPath><clipPath id="clip-19"><path d="M 228.773438 0 L 685.210938 96.371094 L 538.171875 792.769531 L 81.738281 696.398438 Z M 228.773438 0 " clip-rule="nonzero"/></clipPath><clipPath id="clip-20"><path d="M 286 477 L 412 477 L 412 527 L 286 527 Z M 286 477 " clip-rule="nonzero"/></clipPath><clipPath id="clip-21"><path d="M 228.773438 0 L 685.210938 96.371094 L 538.171875 792.769531 L 81.738281 696.398438 Z M 228.773438 0 " clip-rule="nonzero"/></clipPath><clipPath id="clip-22"><path d="M 228.773438 0 L 685.210938 96.371094 L 538.171875 792.769531 L 81.738281 696.398438 Z M 228.773438 0 " clip-rule="nonzero"/></clipPath><clipPath id="clip-23"><path d="M 228.773438 0 L 685.210938 96.371094 L 538.171875 792.769531 L 81.738281 696.398438 Z M 228.773438 0 " clip-rule="nonzero"/></clipPath><clipPath id="clip-24"><path d="M 326 285 L 452 285 L 452 335 L 326 335 Z M 326 285 " clip-rule="nonzero"/></clipPath><clipPath id="clip-25"><path d="M 228.773438 0 L 685.210938 96.371094 L 538.171875 792.769531 L 81.738281 696.398438 Z M 228.773438 0 " clip-rule="nonzero"/></clipPath><clipPath id="clip-26"><path d="M 228.773438 0 L 685.210938 96.371094 L 538.171875 792.769531 L 81.738281 696.398438 Z M 228.773438 0 " clip-rule="nonzero"/></clipPath><clipPath id="clip-27"><path d="M 228.773438 0 L 685.210938 96.371094 L 538.171875 792.769531 L 81.738281 696.398438 Z M 228.773438 0 " clip-rule="nonzero"/></clipPath><clipPath id="clip-28"><path d="M 324 234 L 474 234 L 474 290 L 324 290 Z M 324 234 " clip-rule="nonzero"/></clipPath><clipPath id="clip-29"><path d="M 228.773438 0 L 685.210938 96.371094 L 538.171875 792.769531 L 81.738281 696.398438 Z M 228.773438 0 " clip-rule="nonzero"/></clipPath><clipPath id="clip-30"><path d="M 228.773438 0 L 685.210938 96.371094 L 538.171875 792.769531 L 81.738281 696.398438 Z M 228.773438 0 " clip-rule="nonzero"/></clipPath><clipPath id="clip-31"><path d="M 228.773438 0 L 685.210938 96.371094 L 538.171875 792.769531 L 81.738281 696.398438 Z M 228.773438 0 " clip-rule="nonzero"/></clipPath><clipPath id="clip-32"><path d="M 265 573 L 391 573 L 391 623 L 265 623 Z M 265 573 " clip-rule="nonzero"/></clipPath><clipPath id="clip-33"><path d="M 228.773438 0 L 685.210938 96.371094 L 538.171875 792.769531 L 81.738281 696.398438 Z M 228.773438 0 " clip-rule="nonzero"/></clipPath><clipPath id="clip-34"><path d="M 228.773438 0 L 685.210938 96.371094 L 538.171875 792.769531 L 81.738281 696.398438 Z M 228.773438 0 " clip-rule="nonzero"/></clipPath><clipPath id="clip-35"><path d="M 228.773438 0 L 685.210938 96.371094 L 538.171875 792.769531 L 81.738281 696.398438 Z M 228.773438 0 " clip-rule="nonzero"/></clipPath><clipPath id="clip-36"><path d="M 243 618 L 393 618 L 393 674 L 243 674 Z M 243 618 " clip-rule="nonzero"/></clipPath><clipPath id="clip-37"><path d="M 228.773438 0 L 685.210938 96.371094 L 538.171875 792.769531 L 81.738281 696.398438 Z M 228.773438 0 " clip-rule="nonzero"/></clipPath><clipPath id="clip-38"><path d="M 228.773438 0 L 685.210938 96.371094 L 538.171875 792.769531 L 81.738281 696.398438 Z M 228.773438 0 " clip-rule="nonzero"/></clipPath><clipPath id="clip-39"><path d="M 228.773438 0 L 685.210938 96.371094 L 538.171875 792.769531 L 81.738281 696.398438 Z M 228.773438 0 " clip-rule="nonzero"/></clipPath><clipPath id="clip-40"><path d="M 566 268 L 641 268 L 641 342 L 566 342 Z M 566 268 " clip-rule="nonzero"/></clipPath><clipPath id="clip-41"><path d="M 228.773438 0 L 685.210938 96.371094 L 538.171875 792.769531 L 81.738281 696.398438 Z M 228.773438 0 " clip-rule="nonzero"/></clipPath><clipPath id="clip-42"><path d="M 228.773438 0 L 685.210938 96.371094 L 538.171875 792.769531 L 81.738281 696.398438 Z M 228.773438 0 " clip-rule="nonzero"/></clipPath><clipPath id="clip-43"><path d="M 228.773438 0 L 685.210938 96.371094 L 538.171875 792.769531 L 81.738281 696.398438 Z M 228.773438 0 " clip-rule="nonzero"/></clipPath><clipPath id="clip-44"><path d="M 157 316 L 207 316 L 207 366 L 157 366 Z M 157 316 " clip-rule="nonzero"/></clipPath><clipPath id="clip-45"><path d="M 228.773438 0 L 685.210938 96.371094 L 538.171875 792.769531 L 81.738281 696.398438 Z M 228.773438 0 " clip-rule="nonzero"/></clipPath><clipPath id="clip-46"><path d="M 228.773438 0 L 685.210938 96.371094 L 538.171875 792.769531 L 81.738281 696.398438 Z M 228.773438 0 " clip-rule="nonzero"/></clipPath><clipPath id="clip-47"><path d="M 228.773438 0 L 685.210938 96.371094 L 538.171875 792.769531 L 81.738281 696.398438 Z M 228.773438 0 " clip-rule="nonzero"/></clipPath><clipPath id="clip-48"><path d="M 226 208 L 446 208 L 446 670 L 226 670 Z M 226 208 " clip-rule="nonzero"/></clipPath><clipPath id="clip-49"><path d="M 228.773438 0 L 685.210938 96.371094 L 538.171875 792.769531 L 81.738281 696.398438 Z M 228.773438 0 " clip-rule="nonzero"/></clipPath><clipPath id="clip-50"><path d="M 228.773438 0 L 685.210938 96.371094 L 538.171875 792.769531 L 81.738281 696.398438 Z M 228.773438 0 " clip-rule="nonzero"/></clipPath><clipPath id="clip-51"><path d="M 228.773438 0 L 685.210938 96.371094 L 538.171875 792.769531 L 81.738281 696.398438 Z M 228.773438 0 " clip-rule="nonzero"/></clipPath><clipPath id="clip-52"><path d="M 271 238 L 492 238 L 492 700 L 271 700 Z M 271 238 " clip-rule="nonzero"/></clipPath><clipPath id="clip-53"><path d="M 228.773438 0 L 685.210938 96.371094 L 538.171875 792.769531 L 81.738281 696.398438 Z M 228.773438 0 " clip-rule="nonzero"/></clipPath><clipPath id="clip-54"><path d="M 228.773438 0 L 685.210938 96.371094 L 538.171875 792.769531 L 81.738281 696.398438 Z M 228.773438 0 " clip-rule="nonzero"/></clipPath><clipPath id="clip-55"><path d="M 228.773438 0 L 685.210938 96.371094 L 538.171875 792.769531 L 81.738281 696.398438 Z M 228.773438 0 " clip-rule="nonzero"/></clipPath></defs><g clip-path="url(#clip-0)"><g clip-path="url(#clip-1)"><g clip-path="url(#clip-2)"><g clip-path="url(#clip-3)"><path fill="rgb(67.83905%, 38.819885%, 15.289307%)" d="M 549.871094 143.125 L 309.640625 92.402344 L 319.777344 44.386719 C 322.578125 31.117188 335.589844 22.648438 348.871094 25.453125 L 541.054688 66.027344 C 554.332031 68.832031 562.808594 81.839844 560.007812 95.109375 L 549.871094 143.125 " fill-opacity="1" fill-rule="nonzero"/></g></g></g></g><g clip-path="url(#clip-4)"><g clip-path="url(#clip-5)"><g clip-path="url(#clip-6)"><g clip-path="url(#clip-7)"><path fill="rgb(82.749939%, 51.759338%, 23.919678%)" d="M 546.675781 217.683594 L 282.421875 161.886719 C 262.527344 157.6875 249.792969 138.148438 253.992188 118.269531 C 258.1875 98.386719 277.734375 85.664062 297.628906 89.867188 L 561.882812 145.660156 C 581.773438 149.859375 594.511719 169.398438 590.3125 189.28125 C 586.113281 209.160156 566.570312 221.882812 546.675781 217.683594 " fill-opacity="1" fill-rule="nonzero"/></g></g></g></g><g clip-path="url(#clip-8)"><g clip-path="url(#clip-9)"><g clip-path="url(#clip-10)"><g clip-path="url(#clip-11)"><path fill="rgb(31.369019%, 70.588684%, 97.24884%)" d="M 297.960938 741.957031 C 231.617188 727.949219 189.191406 662.859375 203.191406 596.558594 L 294.433594 164.425781 L 534.664062 215.144531 L 443.421875 647.28125 C 429.421875 713.582031 364.308594 755.964844 297.960938 741.957031 " fill-opacity="1" fill-rule="nonzero"/></g></g></g></g><g clip-path="url(#clip-12)"><g clip-path="url(#clip-13)"><g clip-path="url(#clip-14)"><g clip-path="url(#clip-15)"><path fill="rgb(91.369629%, 44.309998%, 19.219971%)" d="M 428.324219 481.085938 L 284.1875 450.65625 L 289.253906 426.648438 L 433.394531 457.082031 L 428.324219 481.085938 " fill-opacity="1" fill-rule="nonzero"/></g></g></g></g><g clip-path="url(#clip-16)"><g clip-path="url(#clip-17)"><g clip-path="url(#clip-18)"><g clip-path="url(#clip-19)"><path fill="rgb(85.879517%, 32.159424%, 49.01886%)" d="M 426.449219 430.535156 L 306.335938 405.175781 L 311.40625 381.167969 L 431.519531 406.527344 L 426.449219 430.535156 " fill-opacity="1" fill-rule="nonzero"/></g></g></g></g><g clip-path="url(#clip-20)"><g clip-path="url(#clip-21)"><g clip-path="url(#clip-22)"><g clip-path="url(#clip-23)"><path fill="rgb(85.879517%, 32.159424%, 49.01886%)" d="M 406.175781 526.566406 L 286.058594 501.207031 L 291.128906 477.199219 L 411.242188 502.558594 L 406.175781 526.566406 " fill-opacity="1" fill-rule="nonzero"/></g></g></g></g><g clip-path="url(#clip-24)"><g clip-path="url(#clip-25)"><g clip-path="url(#clip-26)"><g clip-path="url(#clip-27)"><path fill="rgb(91.369629%, 44.309998%, 19.219971%)" d="M 446.726562 334.507812 L 326.613281 309.144531 L 331.679688 285.136719 L 451.796875 310.5 L 446.726562 334.507812 " fill-opacity="1" fill-rule="nonzero"/></g></g></g></g><g clip-path="url(#clip-28)"><g clip-path="url(#clip-29)"><g clip-path="url(#clip-30)"><g clip-path="url(#clip-31)"><path fill="rgb(85.879517%, 32.159424%, 49.01886%)" d="M 468.875 289.027344 L 324.738281 258.59375 L 329.808594 234.585938 L 473.945312 265.019531 L 468.875 289.027344 " fill-opacity="1" fill-rule="nonzero"/></g></g></g></g><g clip-path="url(#clip-32)"><g clip-path="url(#clip-33)"><g clip-path="url(#clip-34)"><g clip-path="url(#clip-35)"><path fill="rgb(85.879517%, 32.159424%, 49.01886%)" d="M 385.898438 622.597656 L 265.785156 597.234375 L 270.851562 573.226562 L 390.96875 598.589844 L 385.898438 622.597656 " fill-opacity="1" fill-rule="nonzero"/></g></g></g></g><g clip-path="url(#clip-36)"><g clip-path="url(#clip-37)"><g clip-path="url(#clip-38)"><g clip-path="url(#clip-39)"><path fill="rgb(91.369629%, 44.309998%, 19.219971%)" d="M 387.773438 673.148438 L 243.636719 642.714844 L 248.703125 618.707031 L 392.839844 649.140625 L 387.773438 673.148438 " fill-opacity="1" fill-rule="nonzero"/></g></g></g></g><g clip-path="url(#clip-40)"><g clip-path="url(#clip-41)"><g clip-path="url(#clip-42)"><g clip-path="url(#clip-43)"><path fill="rgb(52.938843%, 80.778503%, 91.369629%)" d="M 639.570312 312.53125 C 635.375 332.410156 615.828125 345.132812 595.933594 340.933594 C 576.039062 336.730469 563.304688 317.195312 567.503906 297.3125 C 571.699219 277.433594 591.246094 264.710938 611.140625 268.910156 C 631.035156 273.109375 643.769531 292.648438 639.570312 312.53125 " fill-opacity="1" fill-rule="nonzero"/></g></g></g></g><g clip-path="url(#clip-44)"><g clip-path="url(#clip-45)"><g clip-path="url(#clip-46)"><g clip-path="url(#clip-47)"><path fill="rgb(52.938843%, 80.778503%, 91.369629%)" d="M 205.835938 346.339844 C 203.035156 359.609375 190.023438 368.078125 176.742188 365.273438 C 163.464844 362.472656 154.988281 349.464844 157.789062 336.195312 C 160.589844 322.925781 173.601562 314.457031 186.882812 317.257812 C 200.160156 320.0625 208.636719 333.070312 205.835938 346.339844 " fill-opacity="1" fill-rule="nonzero"/></g></g></g></g><g clip-path="url(#clip-48)"><g clip-path="url(#clip-49)"><g clip-path="url(#clip-50)"><g clip-path="url(#clip-51)"><path fill="rgb(98.81897%, 94.119263%, 35.289001%)" d="M 250.578125 669.257812 L 226.554688 664.183594 L 234.15625 628.175781 C 246.769531 568.4375 291.460938 555.246094 330.886719 543.535156 C 371.90625 531.476562 407.351562 520.988281 418.847656 466.546875 C 430.222656 412.671875 401.824219 391.640625 368.882812 367.296875 C 336.574219 343.429688 299.996094 316.359375 312.726562 256.058594 L 322.863281 208.042969 L 346.886719 213.117188 L 336.75 261.128906 C 327.273438 306.003906 352.070312 324.367188 383.492188 347.554688 C 416.46875 371.957031 457.503906 402.316406 442.871094 471.621094 C 428.355469 540.359375 380.269531 554.550781 337.871094 567.101562 C 300.238281 578.207031 267.773438 587.808594 258.179688 633.246094 L 250.578125 669.257812 " fill-opacity="1" fill-rule="nonzero"/></g></g></g></g><g clip-path="url(#clip-52)"><g clip-path="url(#clip-53)"><g clip-path="url(#clip-54)"><g clip-path="url(#clip-55)"><path fill="rgb(97.648621%, 73.329163%, 29.40979%)" d="M 394.714844 699.691406 L 370.691406 694.617188 L 378.296875 658.609375 C 387.890625 613.171875 362.078125 591.265625 332.148438 565.890625 C 298.441406 537.273438 260.195312 504.855469 274.710938 436.113281 C 289.34375 366.8125 339.144531 355.628906 379.175781 346.644531 C 417.289062 338.136719 447.390625 331.363281 456.863281 286.492188 L 467.003906 238.476562 L 491.023438 243.550781 L 480.886719 291.5625 C 468.15625 351.863281 423.753906 361.835938 384.554688 370.605469 C 344.582031 379.554688 310.109375 387.3125 298.730469 441.1875 C 287.238281 495.625 315.417969 519.550781 348.0625 547.160156 C 379.390625 573.808594 414.929688 603.941406 402.320312 663.679688 L 394.714844 699.691406 " fill-opacity="1" fill-rule="nonzero"/></g></g></g></g></svg>