<?xml version="1.0" encoding="UTF-8"?><svg xmlns="http://www.w3.org/2000/svg" xmlns:xlink="http://www.w3.org/1999/xlink" contentScriptType="text/ecmascript" width="750" zoomAndPan="magnify" contentStyleType="text/css" viewBox="0 0 750 749.999995" height="749.999995" preserveAspectRatio="xMidYMid meet" version="1.0"><path fill="rgb(48.239136%, 81.959534%, 87.449646%)" d="M 750 375 C 750 582.105469 582.105469 750 375 750 C 167.894531 750 0 582.105469 0 375 C 0 167.894531 167.894531 0 375 0 C 582.105469 0 750 167.894531 750 375 " fill-opacity="1" fill-rule="nonzero"/><path fill="rgb(100%, 100%, 100%)" d="M 349.9375 561.726562 C 268.03125 561.726562 201.402344 495.09375 201.402344 413.183594 C 201.402344 342.9375 251.285156 281.730469 320.019531 267.664062 L 327.707031 305.222656 C 276.730469 315.65625 239.730469 361.0625 239.730469 413.183594 C 239.730469 473.960938 289.171875 523.394531 349.9375 523.394531 L 349.9375 561.726562 " fill-opacity="1" fill-rule="nonzero"/><path fill="rgb(14.118958%, 19.60907%, 22.349548%)" d="M 530.953125 632.917969 L 530.953125 645.308594 L 253.042969 645.308594 L 253.042969 632.917969 C 253.042969 613.300781 268.949219 597.390625 288.5625 597.390625 L 495.425781 597.390625 C 515.042969 597.390625 530.953125 613.300781 530.953125 632.917969 " fill-opacity="1" fill-rule="nonzero"/><path fill="rgb(14.118958%, 19.60907%, 22.349548%)" d="M 362.160156 538.808594 L 362.160156 597.390625 L 302.554688 597.390625 L 302.554688 538.808594 C 302.554688 522.390625 315.90625 509.039062 332.390625 509.039062 C 340.628906 509.039062 348.039062 512.359375 353.40625 517.789062 C 358.839844 523.152344 362.160156 530.566406 362.160156 538.808594 " fill-opacity="1" fill-rule="nonzero"/><path fill="rgb(100%, 100%, 100%)" d="M 349.9375 542.554688 C 349.9375 552.261719 342.070312 560.125 332.367188 560.125 C 322.664062 560.125 314.800781 552.261719 314.800781 542.554688 C 314.800781 532.851562 322.664062 524.988281 332.367188 524.988281 C 342.070312 524.988281 349.9375 532.851562 349.9375 542.554688 " fill-opacity="1" fill-rule="nonzero"/><path fill="rgb(100%, 100%, 100%)" d="M 387.203125 546.820312 L 362.179688 546.820312 L 362.179688 538.832031 L 387.203125 538.832031 L 387.203125 546.820312 " fill-opacity="1" fill-rule="nonzero"/><path fill="rgb(14.118958%, 19.60907%, 22.349548%)" d="M 478.242188 556.136719 L 387.203125 556.136719 L 387.203125 529.511719 L 478.242188 529.511719 L 478.242188 556.136719 " fill-opacity="1" fill-rule="nonzero"/><path fill="rgb(100%, 100%, 100%)" d="M 491.953125 500.496094 L 314.800781 500.496094 L 314.800781 481.328125 L 491.953125 481.328125 L 491.953125 500.496094 " fill-opacity="1" fill-rule="nonzero"/><path fill="rgb(14.118958%, 19.60907%, 22.349548%)" d="M 447.894531 348.617188 L 343.828125 374.042969 L 304.851562 214.582031 C 302.296875 204.101562 308.753906 193.566406 319.230469 191.003906 L 385.289062 174.84375 C 395.828125 172.289062 406.371094 178.675781 408.925781 189.152344 L 447.894531 348.617188 " fill-opacity="1" fill-rule="nonzero"/><path fill="rgb(100%, 100%, 100%)" d="M 457.925781 374.109375 L 346.632812 401.261719 C 339.738281 402.917969 332.769531 398.707031 331.046875 391.804688 L 328.875 382.792969 C 327.152344 375.832031 331.429688 368.871094 338.332031 367.207031 L 449.625 339.992188 C 456.519531 338.332031 463.488281 342.546875 465.210938 349.445312 L 467.382812 358.519531 C 469.105469 365.421875 464.828125 372.382812 457.925781 374.109375 " fill-opacity="1" fill-rule="nonzero"/><path fill="rgb(14.118958%, 19.60907%, 22.349548%)" d="M 395.871094 416.101562 L 365.945312 423.414062 L 359.753906 398.0625 L 389.675781 390.75 L 395.871094 416.101562 " fill-opacity="1" fill-rule="nonzero"/><path fill="rgb(100%, 100%, 100%)" d="M 390.472656 417.402344 L 394.242188 432.832031 L 375.085938 437.511719 L 371.320312 422.085938 L 390.472656 417.402344 " fill-opacity="1" fill-rule="nonzero"/><path fill="rgb(14.118958%, 19.60907%, 22.349548%)" d="M 451.011719 402.636719 L 421.089844 409.945312 L 414.894531 384.589844 L 444.820312 377.277344 L 451.011719 402.636719 " fill-opacity="1" fill-rule="nonzero"/><path fill="rgb(100%, 100%, 100%)" d="M 445.609375 403.941406 L 449.378906 419.367188 L 430.230469 424.042969 L 426.460938 408.617188 L 445.609375 403.941406 " fill-opacity="1" fill-rule="nonzero"/><path fill="rgb(100%, 100%, 100%)" d="M 300.386719 118.359375 L 368.554688 101.707031 L 386.355469 174.582031 L 318.179688 191.234375 L 300.386719 118.359375 " fill-opacity="1" fill-rule="nonzero"/><path fill="rgb(14.118958%, 19.60907%, 22.349548%)" d="M 381.953125 156.570312 L 313.785156 173.222656 L 315.75 181.261719 L 383.917969 164.609375 L 381.953125 156.570312 " fill-opacity="1" fill-rule="nonzero"/><path fill="rgb(14.118958%, 19.60907%, 22.349548%)" d="M 374.441406 86.175781 L 287.992188 107.292969 L 291.246094 120.59375 L 377.695312 99.476562 L 374.441406 86.175781 " fill-opacity="1" fill-rule="nonzero"/><path fill="rgb(100%, 100%, 100%)" d="M 356.054688 284.304688 C 356.054688 303.171875 340.761719 318.46875 321.894531 318.46875 C 303.023438 318.46875 287.722656 303.171875 287.722656 284.304688 C 287.722656 265.4375 303.023438 250.136719 321.894531 250.136719 C 340.761719 250.136719 356.054688 265.4375 356.054688 284.304688 " fill-opacity="1" fill-rule="nonzero"/><path fill="rgb(14.118958%, 19.60907%, 22.349548%)" d="M 339.820312 284.304688 C 339.820312 294.207031 331.792969 302.234375 321.894531 302.234375 C 311.992188 302.234375 303.964844 294.207031 303.964844 284.304688 C 303.964844 274.402344 311.992188 266.375 321.894531 266.375 C 331.792969 266.375 339.820312 274.402344 339.820312 284.304688 " fill-opacity="1" fill-rule="nonzero"/></svg>